<svg id="svg28031" viewBox="0 0 16.933333 16.933334" xmlns="http://www.w3.org/2000/svg" xmlns:svg="http://www.w3.org/2000/svg"><g id="layer1" transform="translate(0 -280.067)"><path id="path3080" d="m3.7052014 280.59685c-.4351607 0-.7953002.35755-.7953002.79271v.79324h-.2635499c-.4351612 0-.7947834.35962-.7947834.79478s.3596222.79272.7947834.79272h1.0588501c.4351613 0 .7927165-.35756.7927165-.79272s-.3575552-.79478-.7927165-.79478h-.2656168v-.79324c0-.15115.1144609-.26561.2656168-.26561h10.5817836c.151157 0 .265617.11446.265617.26561v12.81679 1.4702c0 .15116-.11446.26613-.265617.26613h-10.5817836c-.1511554 0-.2656168-.11498-.2656168-.26613 0-.35287-.5296834-.35287-.5296834 0 0 .43516.3601389.7953.7953002.7953h10.5817836c.435162 0 .7953-.36014.7953-.7953v-1.4702-12.81679c0-.43516-.360139-.79271-.7953-.79271zm-1.0588501 2.11512h1.0588501c.1511562 0 .2635499.11445.2635499.26561s-.1123937.26355-.2635499.26355h-1.0588501c-.1511559 0-.2656167-.11239-.2656167-.26355s.1144608-.26561.2656167-.26561zm.52865 1.58388c-.1323242 0-.2651001.0882-.2651001.26458v1.32757h-.2635499c-.4351612 0-.7947834.35755-.7947834.79272 0 .43516.3596222.79478.7947834.79478h1.0588501c.4351613 0 .7927165-.35962.7927165-.79478 0-.43517-.3575552-.79272-.7927165-.79272h-.2656168v-1.32757c0-.17643-.1322591-.26458-.2645833-.26458zm2.9832805.87901c-.2435682.25528.139354.62064.3829222.36536l.3808553-.39843c.069164-.0724.1037881-.0332.1405599.004l1.1131106 1.11362-.7224366.72244c-.1758977.1759-.246625.40394-.2247927.58963.021831.18568.1105599.31876.1798341.40824.2306985.29798.6040486.84435 1.214913 1.45521.6108645.61086 1.1567112.98628 1.4546924 1.21698.08948.0693.224628.15593.410311.17777.185683.0218.412177-.0489.588077-.2248l.722437-.72243 1.11311 1.11311c.08859.0886.04407.10062 0 .14469l-.650089.65009c-.177877.17787-.411595.18398-.591695.18397-.646175 0-1.8143502-.23408-3.5822114-2.00195-1.7678612-1.76786-2.0019449-2.93811-2.0019449-3.58427-.00765-.34504-.5215112-.34504-.5291667 0 0 .78336.3205874 2.12151 2.1559409 3.95686 1.8353529 1.83535 3.1740141 2.15853 3.9573821 2.15853.181169 0 .625885.003.966866-.33797l.650089-.6506c.110485-.11049.201855-.25682.207223-.4315.0054-.17468-.08225-.33805-.207223-.46302l-1.117244-1.11555c-.202238-.20224-.537773-.20224-.740007 0l-.726571.72657c-.109452.10945-.187484.0867-.300756 0-.341624-.26164-.8285462-.59393-1.4045664-1.16996-.5760202-.57601-.924007-1.07675-1.1715047-1.40404-.1140034-.15076-.07254-.22651.00156-.30076l.7250202-.72657c.2022412-.20223.2022396-.53984 0-.74207l-1.1156942-1.1157c-.1249759-.12497-.2878203-.21207-.4625041-.2067-.1746837.005-.3215322.0962-.4338235.20877zm-3.5119305 1.2423h1.0588501c.1511562 0 .2635499.1124.2635499.26356 0 .15115-.1123937.26561-.2635499.26561h-1.0588501c-.1511559 0-.2656167-.11446-.2656167-.26561 0-.15116.1144608-.26356.2656167-.26356zm.52865 1.58389c-.1323242 0-.2651001.0881-.2651001.26458v1.32498h-.2635499c-.4351612 0-.7947834.36014-.7947834.7953 0 .43517.3596222.79272.7947834.79272h1.0588501c.4351613 0 .7927165-.35755.7927165-.79272 0-.43516-.3575552-.7953-.7927165-.7953h-.2656168v-1.32498c0-.17643-.1322591-.26458-.2645833-.26458zm-.52865 2.11925h1.0588501c.1511562 0 .2635499.11446.2635499.26561 0 .15116-.1123937.26356-.2635499.26356h-1.0588501c-.1511559 0-.2656167-.1124-.2656167-.26356 0-.15115.1144608-.26561.2656167-.26561zm.52865 1.58388c-.1323242 0-.2651001.0881-.2651001.26459v1.32704h-.2635499c-.4351612 0-.7947834.35808-.7947834.79324s.3596222.79478.7947834.79478h1.0588501c.4351613 0 .7927165-.35962.7927165-.79478s-.3575552-.79324-.7927165-.79324h-.2656168v-1.32704c0-.17644-.1322591-.26459-.2645833-.26459zm-.52865 2.12132h1.0588501c.1511562 0 .2635499.11239.2635499.26355s-.1123937.26561-.2635499.26561h-1.0588501c-.1511559 0-.2656167-.11445-.2656167-.26561s.1144608-.26355.2656167-.26355z" font-variant-ligatures="normal" font-variant-position="normal" font-variant-caps="normal" font-variant-numeric="normal" font-variant-alternates="normal" font-feature-settings="normal" text-indent="0" text-align="start" text-decoration-line="none" text-decoration-style="solid" text-decoration-color="rgb(0,0,0)" text-transform="none" text-orientation="mixed" white-space="normal" shape-padding="0" isolation="auto" mix-blend-mode="normal" solid-color="rgb(0,0,0)" solid-opacity="1" vector-effect="none"></path></g></svg>