<!-- icon666.com - MILLIONS vector ICONS FREE --><svg viewBox="0 0 512.00006 512" xmlns="http://www.w3.org/2000/svg"><path d="m429.554688 0h-231.015626c-41.128906 0-74.863281 31.699219-77.214843 71.53125h-106.324219c-5.621094 0-10.769531 3.144531-13.339844 8.144531-2.570312 5-2.128906 11.015625 1.144532 15.585938l46.300781 64.6875v276.070312c0 41.894531 34.695312 75.980469 77.34375 75.980469h236.113281c41.1875 0 74.957031-31.785156 77.226562-71.699219 40.265626-2.605469 72.210938-35.613281 72.210938-75.816406v-283.515625c0-44.644531-36.984375-80.96875-82.445312-80.96875zm-19.644532 436.019531c0 25.351563-21.238281 45.980469-47.347656 45.980469h-236.113281c-26.105469 0-47.34375-20.628906-47.34375-45.980469v-280.882812c0-3.132813-.980469-6.183594-2.804688-8.730469l-32.117187-44.875h345.523437c11.140625 0 20.203125 8.71875 20.203125 19.433594zm72.089844-71.535156c0 23.628906-18.445312 43.152344-42.089844 45.699219v-289.21875c0-27.257813-22.519531-49.433594-50.203125-49.433594h-238.292969c2.3125-23.273438 22.5625-41.53125 47.125-41.53125h231.015626c28.917968 0 52.445312 22.863281 52.445312 50.96875zm0 0"></path><path d="m364.261719 216.71875h-240.25c-8.28125 0-15 6.714844-15 15s6.71875 15 15 15h240.25c8.285156 0 15-6.714844 15-15s-6.714844-15-15-15zm0 0"></path><path d="m124.011719 306.71875h195.894531c8.285156 0 15-6.714844 15-15s-6.714844-15-15-15h-195.894531c-8.28125 0-15 6.714844-15 15s6.71875 15 15 15zm0 0"></path><path d="m343.539062 336.71875h-219.527343c-8.28125 0-15 6.714844-15 15s6.71875 15 15 15h219.523437c8.285156 0 15-6.714844 15-15s-6.714844-15-14.996094-15zm0 0"></path></svg>