<svg width="14" height="21" viewBox="0 0 14 21" fill="none" xmlns="http://www.w3.org/2000/svg">
<g clip-path="url(#clip0_100_1040)">
<mask id="mask0_100_1040" style="mask-type:luminance" maskUnits="userSpaceOnUse" x="0" y="3" width="14" height="15">
<path d="M14 3.04297H0V17.043H14V3.04297Z" fill="white"/>
</mask>
<g mask="url(#mask0_100_1040)">
<path d="M6.71273 17.043H7.29567C10.4602 17.043 12.0428 17.043 13.0256 16.0602C14.0084 15.0774 14 13.4954 14 10.3387V9.7473C14 6.59112 14 5.00857 13.0256 4.02577C12.0512 3.04297 10.4602 3.04297 7.29567 3.04297H6.71273C3.54761 3.04297 1.9656 3.04297 0.9828 4.02577C-6.25849e-07 5.00857 0 6.59 0 9.7473V10.3387C0 13.4954 -6.25849e-07 15.0774 0.9828 16.0602C1.9656 17.043 3.54761 17.043 6.71273 17.043Z" fill="#45403D"/>
<path d="M7.51261 13.137C4.35589 13.137 2.44014 10.9468 2.36566 7.30737H3.96446C4.01431 9.98083 5.23061 11.1154 6.16304 11.3466V7.30737H7.69574V9.61401C8.5951 9.51434 9.53592 8.46489 9.85286 7.30737H11.3598C11.1185 8.73146 10.0942 9.78089 9.36958 10.2138C10.0942 10.5638 11.2601 11.4799 11.7098 13.137H10.0528C9.70279 12.0293 8.84486 11.1714 7.69574 11.0549V13.137H7.51261Z" fill="white"/>
</g>
</g>
<defs>
<clipPath id="clip0_100_1040">
<rect width="14" height="14" fill="white" transform="translate(0 3.04297)"/>
</clipPath>
</defs>
</svg>
